<?xml version="1.0" encoding="utf-8"?>
<!-- Generator: Adobe Illustrator 16.0.0, SVG Export Plug-In . SVG Version: 6.00 Build 0)  -->
<!DOCTYPE svg PUBLIC "-//W3C//DTD SVG 1.1//EN" "http://www.w3.org/Graphics/SVG/1.1/DTD/svg11.dtd">
<svg version="1.1" id="Layer_1" xmlns="http://www.w3.org/2000/svg" xmlns:xlink="http://www.w3.org/1999/xlink" x="0px" y="0px"
	 width="3077px" height="560px" viewBox="0 0 3077 560" enable-background="new 0 0 3077 560" xml:space="preserve">
<path fill-rule="evenodd" clip-rule="evenodd" fill="#007BCC" d="M511.767,402.528c-5,8.928-10.054,17.825-14.989,26.788
	c-12.205,22.169-24.534,44.274-36.402,66.624c-2.914,5.486-6.459,7.41-12.521,7.379c-39.989-0.21-79.98-0.263-119.968,0.042
	c-6.749,0.051-10.115-2.49-12.95-8.305c-12.554-25.755-25.478-51.329-38.355-76.926c-2.52-5.008-5.426-9.822-8.399-15.165
	c-3.583,2.646-3.216,6.081-3.716,9.115c-4.542,27.574-8.995,55.163-13.611,82.726c-1.385,8.271-1.583,8.377-10.233,8.383
	c-68.316,0.039-136.632,0.045-204.948-0.007c-9.307-0.007-9.441-0.251-7.547-9.829C40.2,432.3,52.295,371.251,64.426,310.209
	c16.477-82.913,32.979-165.82,49.513-248.723c1.909-9.572,2.036-9.672,11.431-9.677c67.649-0.037,135.299,0.049,202.948-0.134
	c6.2-0.018,9.562,2.001,12.132,7.731c14.991,33.417,30.355,66.666,45.547,99.992c1.099,2.412,1.785,5.017,4.1,6.961
	c3.607-0.528,4.089-3.897,5.217-6.393c13.989-30.945,27.692-62.021,41.847-92.89c8.585-18.721,4.539-15.172,23.128-15.225
	c62.316-0.179,124.635-0.068,186.952-0.067c2.666,0,5.335-0.073,7.997,0.033c7.11,0.283,7.743,0.7,9.188,7.785
	c4.126,20.218,8.092,40.469,12.178,60.694c18.979,93.954,37.986,187.901,56.964,281.855c6.128,30.34,12.232,60.686,18.266,91.045
	c1.753,8.818,0.873,9.969-8.099,9.976c-68.316,0.059-136.632,0.058-204.948-0.001c-8.624-0.007-8.941-0.531-10.343-9.774
	c-4.089-26.971-8.168-53.942-12.319-80.903c-0.494-3.21-1.412-6.355-2.133-9.531C513.25,402.819,512.508,402.674,511.767,402.528z
	 M203.134,290.466c1.011,1.155,1.794,2.219,2.743,3.108c26.204,24.587,57.056,41.256,91.101,51.827
	c49.837,15.476,100.564,18.051,151.824,7.989c44.846-8.803,85.421-26.698,120.087-56.994c6.616-5.781,6.636-6.162,0.149-11.913
	c-45.453-40.295-99.853-58.05-159.28-62.56c-24.598-1.867-49.181-0.521-73.562,3.652c-42.647,7.3-81.845,22.779-116.39,49.179
	C213.801,279.343,207.492,283.754,203.134,290.466z"/>
<path fill-rule="evenodd" clip-rule="evenodd" fill="#007BCC" d="M2523.599,501.715c-1.907,2.966-4.839,2.013-7.282,2.018
	c-39.989,0.076-79.98-0.106-119.967,0.212c-6.842,0.055-10.021-2.715-12.803-8.475c-13.906-28.794-28.147-57.426-42.355-86.073
	c-1.582-3.189-2.455-6.943-6.266-9.314c-3.299,2.81-2.053,6.641-2.068,9.915c-0.115,25.992-0.063,51.985-0.064,77.979
	c0,2.332,0.047,4.666-0.021,6.997c-0.241,8.345-0.375,8.731-8.314,8.757c-33.324,0.107-66.649,0.106-99.973,0
	c-7.704-0.025-7.905-0.462-8.244-7.842c-0.092-1.995-0.032-3.998-0.032-5.998c-0.001-101.307-0.007-202.613,0.005-303.92
	c0.002-15.155-0.98-14.172,13.992-14.178c44.322-0.02,88.646-0.322,132.964,0.126c22.015,0.223,43.788,3.083,64.644,10.911
	c28.807,10.813,50.945,28.909,62.143,58.229c10.027,26.261,10.99,53.316,3.967,80.468c-4.468,17.272-15.148,30.229-30.438,39.239
	c-5.722,3.372-11.896,5.97-17.83,8.991c-5.954,3.031-6.099,3.381-2.842,8.852c2.043,3.432,4.357,6.702,6.566,10.033
	c16.387,24.708,32.767,49.421,49.187,74.107C2500.018,464.935,2522.281,496.446,2523.599,501.715z M2332.844,290.664
	c0.006,0,0.013,0,0.019,0c0,7.302,0.032,14.604-0.012,21.905c-0.027,4.571,2.226,6.497,6.726,6.621
	c8.352,0.23,16.592-0.354,24.515-3.103c11.9-4.13,16.796-11.686,16.669-25.225c-0.13-13.743-5.79-21.961-17.666-25.718
	c-7.761-2.455-15.754-1.768-23.699-1.916c-4.606-0.087-6.667,1.898-6.584,6.525C2332.936,276.723,2332.844,283.694,2332.844,290.664
	z"/>
<path fill-rule="evenodd" clip-rule="evenodd" fill="#007BCC" d="M1327.611,339.924c1.922-4.079,1.123-7.769,1.128-11.329
	c0.063-47.312,0.042-94.623,0.043-141.935c0-2.332-0.071-4.668,0.03-6.996c0.317-7.313,0.597-7.8,8.261-7.824
	c32.318-0.102,64.638-0.099,96.955-0.005c8.211,0.023,8.449,0.46,8.742,8.37c0.063,1.664,0.021,3.332,0.021,4.998
	c0.001,101.619,0.008,203.239-0.008,304.859c-0.002,14.445,0.926,13.715-13.433,13.724c-30.652,0.019-61.307-0.179-91.956,0.148
	c-6.551,0.07-10.229-2.219-13.532-7.738c-29.749-49.719-59.741-99.293-89.732-148.868c-1.625-2.686-2.862-5.852-6.818-8.392
	c-0.207,4.218-0.495,7.394-0.499,10.57c-0.034,29.653-0.477,59.315,0.148,88.955c0.386,18.296,1.472,36.582,1.25,54.897
	c-0.124,10.234-0.138,10.38-9.741,10.401c-31.985,0.07-63.971,0.071-95.955,0c-9.591-0.021-9.706-0.168-9.712-10.416
	c-0.038-63.637-0.021-127.274-0.021-190.911c-0.001-38.649-0.001-77.298,0-115.947c0-2.332-0.076-4.668,0.033-6.996
	c0.323-6.939,0.686-7.607,7.432-7.632c33.651-0.12,67.304,0.083,100.952-0.181c6.252-0.049,8.776,3.57,11.354,7.998
	c16.081,27.624,32.178,55.239,48.306,82.835c14.112,24.147,28.267,48.271,42.432,72.389
	C1324.277,336.579,1324.845,338.624,1327.611,339.924z"/>
<path fill-rule="evenodd" clip-rule="evenodd" fill="#007BCC" d="M914.277,167.074c47.442-0.184,86.108,11.112,120.34,36.166
	c32.808,24.011,53.729,56.116,62.178,95.804c8.325,39.108,5.837,77.618-11.139,114.265c-19.899,42.96-53.961,70.58-98.229,85.172
	c-48.36,15.941-97.256,15.731-144.77-3.129c-62.084-24.644-97.358-70.56-104.589-137.577c-3.75-34.763,1.665-67.886,17.775-98.694
	c22.291-42.629,57.812-69.733,103.568-83.621C878.956,169.527,898.985,166.502,914.277,167.074z M918.212,403.842
	c20.876,0.465,37.705-6.363,49.57-22.54c13.463-18.355,16.07-39.236,9.949-60.791c-6.04-21.271-19.632-36.148-41.499-41.854
	c-22.825-5.957-43.637-1.772-60.631,15.329c-13.442,13.526-17.384,30.442-17.611,49.256
	C857.604,375.285,882.898,405.916,918.212,403.842z"/>
<path fill-rule="evenodd" clip-rule="evenodd" fill="#007BCC" d="M1980.209,337.581c-0.002-49.317-0.002-98.636-0.002-147.953
	c0-2-0.009-3.999,0.002-5.998c0.065-11.79,0.067-11.825,12.343-11.837c26.658-0.023,53.316-0.008,79.975-0.008
	c38.321,0,76.643,0,114.964,0.002c2.666,0,5.336,0.126,7.996,0.016c4.535-0.189,6.922,1.697,6.695,6.426
	c-0.063,1.329,0.032,2.665,0.032,3.997c0.003,23.659,0.048,47.319-0.021,70.978c-0.029,9.857-0.14,9.964-10.135,9.988
	c-25.658,0.063-51.316,0.021-76.975,0.024c-2.333,0-4.672,0.127-6.997,0c-4.912-0.267-7.489,1.612-7.298,6.891
	c0.205,5.657,0.175,11.331,0.012,16.991c-0.147,5.138,2.279,7.223,7.241,7.119c5.329-0.11,10.663,0.009,15.994,0.011
	c19.66,0.006,39.321-0.058,58.981,0.033c9.57,0.044,9.709,0.172,9.742,9.313c0.084,22.66,0.085,45.319,0.001,67.979
	c-0.035,9.43-0.183,9.592-9.491,9.627c-23.992,0.091-47.985-0.005-71.978,0.056c-10.371,0.026-10.392,0.117-10.487,10.66
	c-0.043,4.665,0.131,9.334-0.008,13.995c-0.148,4.939,1.808,7.543,7.01,7.294c2.659-0.127,5.33,0.021,7.996,0.021
	c26.325,0.005,52.65-0.042,78.976,0.03c9.845,0.027,9.958,0.151,9.987,10.134c0.07,23.659,0.084,47.319-0.011,70.978
	c-0.036,9.188-0.253,9.406-9.695,9.413c-68.312,0.049-136.624,0.048-204.936,0.002c-9.753-0.007-9.882-0.158-9.892-10.23
	C1980.186,441.549,1980.211,389.564,1980.209,337.581z"/>
<path fill-rule="evenodd" clip-rule="evenodd" fill="#007BCC" d="M1607.45,167.209c33.019-0.321,63.902,7.835,92.907,23.427
	c9.074,4.878,9.135,4.922,5.477,14.636c-8.333,22.124-16.856,44.178-25.061,66.35c-3.796,10.259-5.546,8.266-11.683,4.304
	c-16.148-10.425-33.702-17.256-52.91-19.653c-7.076-0.884-13.936-0.397-20.753,1.499c-3.271,0.909-6.156,2.441-8.56,4.903
	c-7.709,7.896-5.894,18.529,4.321,22.683c10.528,4.28,21.863,5.763,32.885,8.27c13.011,2.959,25.89,6.253,38.248,11.364
	c33.209,13.735,53.932,37.622,57.401,73.96c3.648,38.204-8.093,70.986-38.137,96.117c-19.645,16.431-42.604,25.701-67.471,30.695
	c-32.276,6.483-64.261,3.53-96.056-3.334c-19.906-4.298-39.253-10.454-57.788-18.986c-9.226-4.246-9.41-4.759-5.697-14.277
	c9.561-24.509,19.081-49.033,28.748-73.501c4.033-10.207,4.183-10.148,12.743-3.906c12.698,9.258,25.987,17.401,40.88,22.781
	c11.793,4.261,23.878,5.962,36.329,5.148c7.471-0.488,14.461-2.523,20.109-7.758c8.482-7.861,6.914-19.466-3.416-24.759
	c-6.612-3.389-13.96-4.277-21.159-5.581c-18.335-3.321-36.813-6.039-53.988-13.911c-27.086-12.414-46.336-31.782-51.143-61.989
	c-5.484-34.471,3.331-65.589,26.974-91.633c29.054-32.005,66.494-45.255,108.8-46.835
	C1602.114,167.122,1604.784,167.209,1607.45,167.209z"/>
<path fill-rule="evenodd" clip-rule="evenodd" fill="#007BCC" d="M1843.5,171.786c36.999-0.001,73.998-0.002,110.998,0.003
	c2.666,0,5.332,0.065,7.999,0.061c3.622-0.007,5.604,1.66,5.638,5.393c0.018,1.999,0.079,3.999,0.079,5.998
	c0.005,28.333,0.005,56.666,0.001,84.999c0,1.667-0.108,3.337-0.032,4.999c0.214,4.653-1.98,6.691-6.603,6.522
	c-8.653-0.315-17.422,0.261-25.938-0.965c-8.655-1.245-17.289-0.673-25.911-1.364c-6.442-0.516-7.14,0.571-7.471,7.448
	c-0.128,2.661-0.041,5.332-0.041,7.999c-0.001,64.665-0.001,129.331-0.002,193.996c0,2.667,0.054,5.336-0.021,8
	c-0.237,8.531-0.411,8.858-9.252,8.88c-33.332,0.079-66.665,0.069-99.998,0.012c-10.198-0.019-10.292-0.139-10.298-10.887
	c-0.035-64.298-0.021-128.595-0.026-192.893c0-4.998,0.122-10.001-0.055-14.992c-0.26-7.294-0.87-7.905-8.305-7.591
	c-14.622,0.617-29.239,1.365-43.853,2.154c-13.583,0.733-13.612,0.787-13.622-12.318c-0.021-28.333-0.04-56.666,0.013-84.999
	c0.02-10.342,0.113-10.428,10.7-10.438C1766.168,171.764,1804.834,171.787,1843.5,171.786z"/>
<path fill-rule="evenodd" clip-rule="evenodd" fill="#FAFDFE" d="M203.134,290.466c4.358-6.712,10.667-11.123,16.671-15.711
	c34.545-26.399,73.743-41.879,116.39-49.179c24.381-4.174,48.964-5.52,73.562-3.652c59.428,4.51,113.827,22.265,159.28,62.56
	c6.486,5.751,6.467,6.132-0.149,11.913c-34.666,30.296-75.241,48.191-120.087,56.994c-51.26,10.062-101.986,7.486-151.824-7.989
	c-34.044-10.571-64.896-27.24-91.101-51.827C204.928,292.685,204.145,291.621,203.134,290.466z M329.739,290.373
	c-1.708,28.509,23.369,59.694,59.255,59.747c27.989,0.042,59.218-22.049,59.195-60.116c-0.021-35.476-29.158-59.757-59.595-59.682
	C354.739,230.405,327.843,260.016,329.739,290.373z"/>
<path fill-rule="evenodd" clip-rule="evenodd" fill="#0F101C" d="M329.739,290.373c-1.896-30.357,25-59.968,58.854-60.051
	c30.437-0.075,59.574,24.206,59.595,59.682c0.023,38.067-31.206,60.158-59.195,60.116
	C353.108,350.067,328.031,318.882,329.739,290.373z"/>
<path fill-rule="evenodd" clip-rule="evenodd" fill="#007BCC" d="M2940.793,505.151c-52.889,0-102.937,0.369-152.948-0.79
	c-3.504-0.08-9.483-11.387-9.656-17.604c-0.959-33.983,0.979-68.097-1.08-101.981c-1.023-16.811-5.458-34.916-13.583-49.522
	c-29.719-53.41-61.638-105.598-94.829-161.807c10.172-0.809,16.965-1.79,23.764-1.818c36.23-0.157,72.499,0.895,108.674-0.502
	c17.146-0.661,25.225,5.936,30.736,21.173c7.733,21.383,17.315,42.099,28.649,69.176c10.276-23.765,19.758-41.868,25.949-61.032
	c7.167-22.188,19.156-30.926,43.423-29.517c39.481,2.293,79.196,0.617,123.5,0.617c-6.01,11.1-9.391,18.087-13.433,24.673
	c-29.712,48.466-60.046,96.56-88.964,145.491c-6.007,10.161-9.427,23.257-9.751,35.116
	C2940.085,418.725,2940.793,460.673,2940.793,505.151z"/>
<path fill-rule="evenodd" clip-rule="evenodd" fill="#007BCC" d="M2535,170.973c36.569,0,72.043-0.754,107.398,0.971
	c4.35,0.21,11.398,13.611,11.523,20.995c0.965,57.93,1.427,115.906,0.119,173.822c-0.504,22.399,6.363,30.625,29.164,29.134
	c27.152-1.778,54.514-0.42,82.839-0.42c0,37.927,0,72.535,0,108.845c-77.188,0-153.229,0-231.044,0
	C2535,393.779,2535,283.684,2535,170.973z"/>
</svg>
