<?xml version="1.0" encoding="utf-8"?>
<!-- Generator: Adobe Illustrator 16.0.0, SVG Export Plug-In . SVG Version: 6.00 Build 0)  -->
<!DOCTYPE svg PUBLIC "-//W3C//DTD SVG 1.1//EN" "http://www.w3.org/Graphics/SVG/1.1/DTD/svg11.dtd">
<svg version="1.1" id="Layer_1" xmlns="http://www.w3.org/2000/svg" xmlns:xlink="http://www.w3.org/1999/xlink" x="0px" y="0px"
	 width="890.027px" height="1747.044px" viewBox="0 0 890.027 1747.044" enable-background="new 0 0 890.027 1747.044"
	 xml:space="preserve">
<linearGradient id="SVGID_1_" gradientUnits="userSpaceOnUse" x1="-228.1797" y1="539.3662" x2="1133.6249" y2="1325.6045">
	<stop  offset="0" style="stop-color:#E6E6E6"/>
	<stop  offset="0.4002" style="stop-color:#9D9DA2"/>
	<stop  offset="0.605" style="stop-color:#7C7D84"/>
</linearGradient>
<polygon fill="url(#SVGID_1_)" points="890.027,1747.529 0,1747.529 0,144.149 57.29,72.444 246.345,19.221 302.25,55.442 
	359.264,0 545.548,0 583.988,49.159 660.867,19.405 837.912,78.451 890.027,144.149 "/>
<linearGradient id="SVGID_2_" gradientUnits="userSpaceOnUse" x1="379.7031" y1="59.8716" x2="510.3232" y2="135.2852">
	<stop  offset="0.04" style="stop-color:#E6E6E6"/>
	<stop  offset="0.3343" style="stop-color:#9D9DA2"/>
	<stop  offset="0.485" style="stop-color:#7C7D84"/>
	<stop  offset="0.5762" style="stop-color:#88898F"/>
	<stop  offset="0.7418" style="stop-color:#A8A9AD"/>
	<stop  offset="0.9614" style="stop-color:#DCDCDD"/>
	<stop  offset="1" style="stop-color:#E6E6E6"/>
</linearGradient>
<circle fill="url(#SVGID_2_)" cx="445.013" cy="97.578" r="75.401"/>
<linearGradient id="SVGID_3_" gradientUnits="userSpaceOnUse" x1="391.2275" y1="66.5254" x2="498.7974" y2="128.6309">
	<stop  offset="0.095" style="stop-color:#999999"/>
	<stop  offset="0.2024" style="stop-color:#A5A5A5"/>
	<stop  offset="0.3965" style="stop-color:#C5C5C5"/>
	<stop  offset="0.565" style="stop-color:#E6E6E6"/>
	<stop  offset="0.8026" style="stop-color:#BABABA"/>
	<stop  offset="1" style="stop-color:#999999"/>
</linearGradient>
<circle fill="url(#SVGID_3_)" cx="445.013" cy="97.578" r="62.095"/>
<circle fill="#F74203" cx="445.014" cy="97.578" r="45.832"/>
<rect x="98.281" y="192.044" fill="#1E1D1B" width="695" height="1555"/>
<rect x="126.281" y="213.044" fill="#493511" width="638" height="1534"/>
<rect x="142.281" y="234.044" fill="#753D0B" width="606" height="1513"/>
<rect x="186.281" y="1236.044" fill="#493511" width="240" height="476"/>
<rect x="472.281" y="1236.044" fill="#493511" width="239" height="476"/>
<rect x="488.281" y="1257.044" fill="#753D0B" width="207" height="436"/>
<rect x="201.281" y="1257.044" fill="#753D0B" width="207" height="436"/>
<rect x="186.281" y="718.044" fill="#493511" width="240" height="477"/>
<rect x="472.281" y="718.044" fill="#493511" width="239" height="477"/>
<rect x="488.281" y="739.044" fill="#753D0B" width="207" height="436"/>
<rect x="201.281" y="739.044" fill="#753D0B" width="207" height="436"/>
<path fill="#493511" d="M711.167,668.044H178.924c0,0-5.714-116.257,2.957-171.393c11.615-73.863,81.315-193.805,260.208-193.805
	c221.768,0,255.336,124.787,267.6,199.691C718.764,557.982,711.167,668.044,711.167,668.044z"/>
<path fill="#753D0B" d="M694.421,652.044H197.662c0,0-10.225-103.037,2.957-152.313c18.25-68.22,73.714-184.809,246.221-184.809
	c199.662,0,233.917,121.613,246.103,190.625C701.88,556.17,694.421,652.044,694.421,652.044z"/>
<rect x="719.281" y="1023.044" fill="#BC9904" width="22" height="68"/>
</svg>
