<?xml version="1.0" encoding="utf-8"?>
<!-- Generator: Adobe Illustrator 16.0.0, SVG Export Plug-In . SVG Version: 6.00 Build 0)  -->
<!DOCTYPE svg PUBLIC "-//W3C//DTD SVG 1.1//EN" "http://www.w3.org/Graphics/SVG/1.1/DTD/svg11.dtd">
<svg version="1.1" id="Layer_1" xmlns="http://www.w3.org/2000/svg" xmlns:xlink="http://www.w3.org/1999/xlink" x="0px" y="0px"
	 width="890.027px" height="1747.044px" viewBox="0 0 890.027 1747.044" enable-background="new 0 0 890.027 1747.044"
	 xml:space="preserve">
<linearGradient id="SVGID_1_" gradientUnits="userSpaceOnUse" x1="-228.1797" y1="539.3662" x2="1133.6249" y2="1325.6045">
	<stop  offset="0" style="stop-color:#E6E6E6"/>
	<stop  offset="0.4002" style="stop-color:#9D9DA2"/>
	<stop  offset="0.605" style="stop-color:#7C7D84"/>
</linearGradient>
<polygon fill="url(#SVGID_1_)" points="890.027,1747.529 0,1747.529 0,144.149 57.29,72.444 246.346,19.221 302.251,55.442 
	359.264,0 545.549,0 583.988,49.159 660.867,19.405 837.912,78.451 890.027,144.149 "/>
<linearGradient id="SVGID_2_" gradientUnits="userSpaceOnUse" x1="379.7031" y1="59.8711" x2="510.3232" y2="135.2847">
	<stop  offset="0.04" style="stop-color:#E6E6E6"/>
	<stop  offset="0.3343" style="stop-color:#9D9DA2"/>
	<stop  offset="0.485" style="stop-color:#7C7D84"/>
	<stop  offset="0.5762" style="stop-color:#88898F"/>
	<stop  offset="0.7418" style="stop-color:#A8A9AD"/>
	<stop  offset="0.9614" style="stop-color:#DCDCDD"/>
	<stop  offset="1" style="stop-color:#E6E6E6"/>
</linearGradient>
<circle fill="url(#SVGID_2_)" cx="445.013" cy="97.578" r="75.401"/>
<linearGradient id="SVGID_3_" gradientUnits="userSpaceOnUse" x1="391.2285" y1="66.5259" x2="498.7975" y2="128.6309">
	<stop  offset="0.095" style="stop-color:#999999"/>
	<stop  offset="0.2024" style="stop-color:#A5A5A5"/>
	<stop  offset="0.3965" style="stop-color:#C5C5C5"/>
	<stop  offset="0.565" style="stop-color:#E6E6E6"/>
	<stop  offset="0.8026" style="stop-color:#BABABA"/>
	<stop  offset="1" style="stop-color:#999999"/>
</linearGradient>
<circle fill="url(#SVGID_3_)" cx="445.014" cy="97.578" r="62.095"/>
<circle fill="#F74203" cx="445.014" cy="97.578" r="45.832"/>
<rect x="98.158" y="192.044" fill="#354437" width="695" height="1555"/>
<rect x="118.158" y="213.044" fill="#C1AD5B" width="654" height="1534"/>
<rect x="138.158" y="234.044" fill="#446B4F" width="615" height="1505"/>
<rect x="170.158" y="1067.044" fill="#C1AD5B" width="240" height="583"/>
<rect x="479.158" y="1067.044" fill="#C1AD5B" width="240" height="583"/>
<rect x="495.158" y="1093.044" fill="#446B4F" width="207" height="533"/>
<rect x="185.158" y="1093.044" fill="#446B4F" width="207" height="533"/>
<path fill="#C1AD5B" d="M409.865,959.044H170.356c0,0-7.392-355.607-7.392-526.094c0-118.275,84.766-143.292,125.668-143.292
	c41.891,0,122.711,23.479,122.711,153.583C411.344,600.425,409.865,959.044,409.865,959.044z"/>
<path fill="#446B4F" d="M392.124,936.044H185.141c0,0-7.392-339.215-7.392-481.178c0-122.134,71.95-144.521,113.841-144.521
	c36.961,0,102.013,22.41,102.013,154.969C393.603,625.341,392.124,936.044,392.124,936.044z"/>
<path fill="#C1AD5B" d="M721.818,959.044H482.31c0,0-7.392-355.607-7.392-526.094c0-118.275,84.766-143.292,125.668-143.292
	c41.891,0,122.711,23.479,122.711,153.583C723.297,600.425,721.818,959.044,721.818,959.044z"/>
<path fill="#446B4F" d="M704.078,936.044H497.095c0,0-7.393-339.215-7.393-481.178c0-122.134,71.95-144.521,113.841-144.521
	c36.961,0,102.014,22.41,102.014,154.969C705.557,625.341,704.078,936.044,704.078,936.044z"/>
<rect x="716.158" y="992.044" fill="#BC9904" width="22" height="68"/>
</svg>
