<?xml version="1.0" encoding="utf-8"?>
<!-- Generator: Adobe Illustrator 16.0.0, SVG Export Plug-In . SVG Version: 6.00 Build 0)  -->
<!DOCTYPE svg PUBLIC "-//W3C//DTD SVG 1.1//EN" "http://www.w3.org/Graphics/SVG/1.1/DTD/svg11.dtd">
<svg version="1.1" id="Layer_1" xmlns="http://www.w3.org/2000/svg" xmlns:xlink="http://www.w3.org/1999/xlink" x="0px" y="0px"
	 width="890.027px" height="1747.818px" viewBox="0 0 890.027 1747.818" enable-background="new 0 0 890.027 1747.818"
	 xml:space="preserve">
<linearGradient id="SVGID_1_" gradientUnits="userSpaceOnUse" x1="-228.1787" y1="539.3657" x2="1133.6251" y2="1325.6035">
	<stop  offset="0" style="stop-color:#E6E6E6"/>
	<stop  offset="0.4002" style="stop-color:#9D9DA2"/>
	<stop  offset="0.605" style="stop-color:#7C7D84"/>
</linearGradient>
<polygon fill="url(#SVGID_1_)" points="890.027,1747.528 0,1747.528 0,144.148 57.29,72.443 246.346,19.219 302.251,55.441 
	359.264,0 545.548,0 583.987,49.159 660.868,19.404 837.912,78.449 890.027,144.148 "/>
<linearGradient id="SVGID_2_" gradientUnits="userSpaceOnUse" x1="379.7031" y1="59.8711" x2="510.3224" y2="135.2842">
	<stop  offset="0.04" style="stop-color:#E6E6E6"/>
	<stop  offset="0.3343" style="stop-color:#9D9DA2"/>
	<stop  offset="0.485" style="stop-color:#7C7D84"/>
	<stop  offset="0.5762" style="stop-color:#88898F"/>
	<stop  offset="0.7418" style="stop-color:#A8A9AD"/>
	<stop  offset="0.9614" style="stop-color:#DCDCDD"/>
	<stop  offset="1" style="stop-color:#E6E6E6"/>
</linearGradient>
<circle fill="url(#SVGID_2_)" cx="445.014" cy="97.577" r="75.401"/>
<linearGradient id="SVGID_3_" gradientUnits="userSpaceOnUse" x1="391.2275" y1="66.5244" x2="498.7982" y2="128.6304">
	<stop  offset="0.095" style="stop-color:#999999"/>
	<stop  offset="0.2024" style="stop-color:#A5A5A5"/>
	<stop  offset="0.3965" style="stop-color:#C5C5C5"/>
	<stop  offset="0.565" style="stop-color:#E6E6E6"/>
	<stop  offset="0.8026" style="stop-color:#BABABA"/>
	<stop  offset="1" style="stop-color:#999999"/>
</linearGradient>
<circle fill="url(#SVGID_3_)" cx="445.014" cy="97.577" r="62.095"/>
<circle fill="#353232" cx="445.014" cy="97.577" r="45.832"/>
<rect x="97.806" y="191.818" fill="#1E1D1B" width="695" height="1556"/>
<rect x="125.806" y="212.818" fill="#D27C2F" width="639" height="1535"/>
<rect x="141.806" y="233.818" fill="#1E1D1B" width="607" height="1514"/>
<rect x="183.806" y="1235.818" fill="#D27C2F" width="239" height="476"/>
<rect x="468.806" y="1235.818" fill="#D27C2F" width="240" height="476"/>
<rect x="484.806" y="1256.818" fill="#1E1D1B" width="207" height="436"/>
<rect x="198.806" y="1256.818" fill="#1E1D1B" width="207" height="436"/>
<rect x="183.806" y="718.818" fill="#D27C2F" width="239" height="476"/>
<rect x="468.806" y="718.818" fill="#D27C2F" width="240" height="476"/>
<rect x="484.806" y="738.818" fill="#1E1D1B" width="207" height="437"/>
<rect x="198.806" y="738.818" fill="#1E1D1B" width="207" height="437"/>
<path fill="#D27C2F" d="M710.771,667.818H178.528c0,0-5.714-116.145,2.957-171.28C193.101,422.675,262.8,302.79,441.692,302.79
	c221.769,0,255.337,124.702,267.601,199.606C718.368,557.842,710.771,667.818,710.771,667.818z"/>
<path fill="#1E1D1B" d="M694.026,651.818h-496.76c0,0-10.225-102.925,2.957-152.201c18.25-68.22,73.715-184.752,246.221-184.752
	c199.662,0,233.918,121.528,246.104,190.541C701.484,556.028,694.026,651.818,694.026,651.818z"/>
<rect x="717.806" y="1022.818" fill="#BC9904" width="22" height="68"/>
</svg>
